<svg width="50" height="48" viewBox="0 0 50 48" fill="none" xmlns="http://www.w3.org/2000/svg">
<path d="M8.71795 0H40.5128C45.3333 0 49.2308 3.89744 49.2308 8.71795V39.2821C49.2308 44.1026 45.3333 48 40.5128 48H8.71795C3.89744 48 0 44.1026 0 39.2821V8.71795C0 3.89744 3.89744 0 8.71795 0Z" fill="#330000"/>
<path d="M23.7944 28.7169H16.1636L14.6046 33.5374C14.5636 33.722 14.3995 33.8451 14.2149 33.8246H10.3585C10.1328 33.8246 10.0713 33.7015 10.1328 33.4554L16.738 14.44C16.7995 14.2349 16.861 14.0092 16.9431 13.7631C17.0251 13.3323 17.0662 12.881 17.0662 12.4297C17.0456 12.3272 17.1277 12.2246 17.2303 12.2041H17.2918H22.5431C22.7072 12.2041 22.7892 12.2656 22.8097 12.3682L30.2969 33.4964C30.3585 33.7221 30.2969 33.8246 30.0918 33.8246H25.8046C25.661 33.8451 25.5174 33.7426 25.4764 33.599L23.7944 28.7169ZM17.3533 24.5528H22.5636C22.4405 24.1221 22.2764 23.6092 22.0918 23.0759C21.9072 22.5221 21.7226 21.9272 21.538 21.3118C21.3328 20.6759 21.1482 20.0605 20.9431 19.4246C20.738 18.7887 20.5533 18.1938 20.3892 17.599C20.2251 17.0246 20.0815 16.4913 19.938 15.999H19.8969C19.7123 16.881 19.4867 17.7631 19.1995 18.6451C18.8918 19.6297 18.5841 20.6554 18.2559 21.681C17.9687 22.7272 17.661 23.6913 17.3533 24.5528Z" fill="#FF9A00"/>
<path d="M34.8709 15.7942C34.194 15.8147 33.5376 15.5481 33.0453 15.0763C32.5735 14.5635 32.3274 13.8865 32.3479 13.1891C32.3274 12.4917 32.594 11.8353 33.0863 11.3635C33.5786 10.8917 34.235 10.6455 34.912 10.6455C35.712 10.6455 36.3274 10.8917 36.7786 11.3635C37.2299 11.8558 37.4761 12.5122 37.4556 13.1891C37.4761 13.8865 37.2299 14.5635 36.7376 15.0763C36.2658 15.5686 35.5684 15.8353 34.8709 15.7942ZM32.5735 33.5994V17.8045C32.5735 17.5994 32.6556 17.5173 32.8402 17.5173H36.9017C37.0863 17.5173 37.1684 17.6199 37.1684 17.8045V33.5994C37.1684 33.825 37.0863 33.9276 36.9017 33.9276H32.8812C32.6761 33.9276 32.5735 33.8045 32.5735 33.5994Z" fill="#FF9A00"/>
</svg>
