<svg width="43" height="48" viewBox="0 0 43 48" fill="none" xmlns="http://www.w3.org/2000/svg">
<path d="M42.9474 0H0L3.78947 42.9474L21.4737 48L39.1579 42.9474L42.9474 0Z" fill="#0277BD"/>
<path d="M21.4736 3.78906V44.0838L35.621 40.0417L38.7789 3.78906H21.4736Z" fill="#039BE5"/>
<path d="M32.9684 10.1055H21.4736V15.1581H27.6631L27.2842 20.2107H21.4736V25.2634H27.0315L26.6526 30.9476L21.4736 32.716V38.0213L31.4526 34.737L32.3368 20.2107L32.9684 10.1055Z" fill="white"/>
<path d="M21.4733 10.1055V15.1581H10.2312L9.85229 10.1055H21.4733ZM15.6628 20.2107L15.9155 25.2634H21.4733V20.2107H15.6628ZM16.1681 27.7897H11.1155L11.4944 34.737L21.4733 38.0213V32.716L16.2944 30.9476L16.1681 27.7897Z" fill="#EEEEEE"/>
</svg>
