<svg width="60" height="60" viewBox="0 0 60 60" fill="none" xmlns="http://www.w3.org/2000/svg">
<path d="M39.1394 50.8286H20.4397C20.2453 50.8286 20.1689 50.5621 20.332 50.4493L21.8976 49.3445C23.5882 48.1521 24.3867 45.9677 23.8937 43.8857H35.6861L35.6852 43.8874C35.1931 45.9694 35.9924 48.1547 37.683 49.3463L39.2477 50.4494C39.4101 50.563 39.3337 50.8286 39.1394 50.8286Z" fill="#ECE7DE"/>
<path d="M51.921 43.8857H7.65775C5.98104 43.8857 4.62109 42.5267 4.62109 40.85V8.73579C4.62109 7.05908 5.98104 5.70001 7.65775 5.70001H51.921C53.5977 5.70001 54.9568 7.05908 54.9568 8.73579V40.85C54.9568 42.5267 53.5977 43.8857 51.921 43.8857Z" fill="#F6F3EC"/>
<path d="M54.9578 36.075H4.62207V8.73572C4.62207 7.05901 5.98113 5.69995 7.65784 5.69995H51.922C53.5987 5.69995 54.9578 7.05901 54.9578 8.73572V36.075Z" fill="#B5AC9A"/>
<path d="M39.3354 54.2999H20.2425C19.2836 54.2999 18.5068 53.5232 18.5068 52.5642C18.5068 51.6053 19.2836 50.8286 20.2425 50.8286H39.3354C40.2943 50.8286 41.0711 51.6053 41.0711 52.5642C41.0711 53.5232 40.2943 54.2999 39.3354 54.2999Z" fill="#F6F3EC"/>
<path d="M24.5945 29.1321C24.3723 29.1321 24.1501 29.047 23.9809 28.8778L17.0849 21.9818C16.9817 21.895 16.8974 21.7831 16.8437 21.6538C16.7101 21.3292 16.7777 20.9561 17.0259 20.7078L23.9748 13.7589C24.3142 13.4204 24.8635 13.4204 25.2019 13.7589C25.5413 14.0983 25.5413 14.6476 25.2019 14.9861L18.8726 21.3154L25.2079 27.6507C25.5473 27.9901 25.5473 28.5386 25.2079 28.8778C25.0388 29.047 24.8167 29.1321 24.5945 29.1321Z" fill="white"/>
<path d="M35.0148 29.1379C34.7926 29.1379 34.5704 29.0529 34.4012 28.8837C34.0619 28.5443 34.0619 27.9958 34.4012 27.6566L40.7297 21.3272L34.3952 14.9919C34.0558 14.6534 34.0558 14.1041 34.3952 13.7648C34.7336 13.4263 35.283 13.4263 35.6223 13.7648L42.5174 20.6599C42.6215 20.7476 42.7058 20.8595 42.7595 20.9888C42.894 21.3135 42.8255 21.6866 42.5773 21.9348L35.6284 28.8837C35.4592 29.0529 35.237 29.1379 35.0148 29.1379Z" fill="white"/>
<path d="M28.0681 29.132C27.9978 29.132 27.9275 29.1243 27.8563 29.106C27.392 28.9897 27.109 28.5185 27.2253 28.0533L30.6967 14.1676C30.813 13.7033 31.286 13.4203 31.7495 13.5366C32.2138 13.6529 32.4967 14.1241 32.3804 14.5893L28.909 28.475C28.8101 28.8691 28.4569 29.132 28.0681 29.132Z" fill="white"/>
</svg>
