<svg width="29" height="64" viewBox="0 0 29 64" fill="none" xmlns="http://www.w3.org/2000/svg">
<path d="M21.9 61.6184L22.5048 51.5405L24.1748 48.6898C24.1748 48.6898 20.3739 50.2446 14.0105 50.2446C7.64707 50.2446 3.90377 48.7185 3.90377 48.7185L5.77537 51.8283L6.43746 61.6184C6.43746 62.668 9.8988 63.5187 14.1688 63.5187C18.4385 63.5187 21.9 62.668 21.9 61.6184ZM19.9922 14.5561L21.2616 9.53836L28.2916 2.14115L26.4388 0.562988L18.9961 8.44286L17.5221 14.4378C16.4128 14.4006 15.3029 14.3821 14.193 14.3824C6.35443 14.3824 0 15.2757 0 16.3775C0 17.4793 6.35443 18.3725 14.193 18.3725C22.0314 18.3725 28.3857 17.4793 28.3857 16.3775C28.3857 15.5661 24.9394 14.8678 19.9922 14.5561Z" fill="#D34A47"/>
<path d="M19.2536 17.3663C19.2536 17.3663 18.9786 17.4279 18.1699 17.4314C17.3609 17.4347 16.7865 17.4261 16.5577 17.2177C16.4962 17.1618 16.4626 17.0507 16.4629 16.9754C16.4636 16.8322 16.5652 16.7479 16.6947 16.695L16.8172 16.8872C16.7639 16.9056 16.7335 16.9273 16.7334 16.9505C16.7329 17.0592 17.5605 17.1337 18.1935 17.1257C18.8266 17.1179 19.5916 17.0657 19.5922 16.9585C19.5922 16.9261 19.5344 16.8955 19.4338 16.8715L19.5557 16.6807C19.7197 16.7316 19.8629 16.83 19.8626 17.0003C19.861 17.2898 19.4926 17.3338 19.2536 17.3663Z" fill="white"/>
<path d="M28.2773 2.1558C28.454 1.95163 28.1858 1.4294 27.6781 0.989535C27.1703 0.549888 26.6153 0.358873 26.4382 0.563038C26.2614 0.767204 26.5297 1.28943 27.0376 1.72908C27.5452 2.16884 28.1004 2.36007 28.2773 2.1558ZM21.5613 37.0022C21.3947 35.3992 25.0676 33.0776 24.125 33.0033C22.0958 33.1193 21.0859 35.3813 20.065 37.7504C19.6908 38.6186 18.4107 42.321 17.5711 41.8652C16.7317 41.4096 18.6593 38.3651 19.1996 36.557C18.5762 37.0142 16.2899 38.7905 15.7007 37.127C14.7534 37.9315 12.7293 38.3673 12.9576 36.254C12.4537 37.1467 11.3226 38.393 9.965 37.8751C8.18212 37.1952 10.9981 31.5159 11.6983 31.8024C12.3986 32.0888 11.557 33.3825 11.3365 33.8849C10.8518 34.9906 10.2918 36.3805 10.6659 36.665C11.3068 37.1525 13.0509 34.821 13.0897 34.7697C13.4159 34.3387 14.3452 31.5193 15.0942 31.8431C15.8432 32.1668 13.226 35.8894 14.2046 36.6281C14.4019 36.7772 15.2094 36.5362 15.7007 36.0047C16.0185 35.6609 15.9092 34.8994 16.9687 32.3728C18.0282 29.8462 18.9725 26.6997 19.6991 26.9394C20.4257 27.179 19.8268 28.7939 19.5661 29.396C18.3429 32.2215 16.2277 36.8896 17.2252 36.5362C18.2228 36.1829 18.7422 36.1622 19.719 35.0191C20.6958 33.876 20.6508 31.9932 21.3019 32.0332C21.9532 32.0733 21.8438 32.677 21.6859 33.1367C22.3267 32.4034 24.7234 30.859 25.302 32.3886C25.9874 34.1994 21.873 36.8151 22.8989 36.6817C23.8991 36.5517 25.5195 35.5254 26.2113 34.5923L28.1157 17.4716C28.1157 17.4716 26.1994 19.0574 14.0081 19.0574C1.81666 19.0574 0.0986328 17.5045 0.0986328 17.5045L1.71992 33.1317C2.58049 30.6858 4.62404 25.7386 7.84522 25.9046C9.31049 25.9802 11.2666 28.8016 9.59099 28.8973C8.88176 28.9376 8.80977 27.4889 7.96993 27.2762C7.3639 27.1226 6.52015 27.6153 5.97486 28.1491C4.88739 29.2134 2.54851 33.4125 2.85754 35.506C3.25127 38.175 6.54055 34.5786 7.0971 33.5108C7.48905 32.7587 7.75384 30.5302 8.61107 30.7641C9.46841 30.9979 8.53629 33.2976 7.91488 35.3309C7.21679 37.6141 6.8498 40.0225 5.97486 39.7454C5.0998 39.4686 6.52517 36.5211 6.47357 36.0047C5.65111 36.7635 4.13592 38.6846 2.19746 37.7338L3.20436 47.4381C3.20436 47.4381 5.88046 49.5525 13.942 49.5525C22.0035 49.5525 24.7787 47.4711 24.7787 47.4711L26.029 36.2312C25.0061 37.2273 21.7686 38.9961 21.5613 37.0022Z" fill="#D34A47"/>
</svg>
