<svg width="43" height="48" viewBox="0 0 43 48" fill="none" xmlns="http://www.w3.org/2000/svg">
<path d="M42.9474 0H0L3.78947 42.9474L21.4737 48L39.1579 42.9474L42.9474 0Z" fill="#E65100"/>
<path d="M21.4739 3.79004V44.0848L35.6212 40.0427L38.7791 3.79004H21.4739Z" fill="#FF6D00"/>
<path d="M21.4739 25.2634V20.2107H32.337L31.4528 34.737L21.4739 38.0213V32.716L26.6528 30.9476L27.0318 25.2634H21.4739ZM32.716 15.1581L33.0949 10.1055H21.4739V15.1581H32.716Z" fill="white"/>
<path d="M21.4735 32.716V38.0213L11.4946 34.737L10.9893 27.7897H16.0419L16.2945 30.9476L21.4735 32.716ZM15.284 15.1581H21.4735V10.1055H9.97876L10.863 25.2634H21.4735V20.2107H15.663L15.284 15.1581Z" fill="#EEEEEE"/>
</svg>
