<svg width="48" height="48" viewBox="0 0 48 48" fill="none" xmlns="http://www.w3.org/2000/svg">
<path d="M0 7C0 3.13401 3.13401 0 7 0H41C44.866 0 48 3.13401 48 7V41C48 44.866 44.866 48 41 48H7C3.13401 48 0 44.866 0 41V7Z" fill="#FFDF00"/>
<path d="M30.3791 38.5833C31.4158 37.9811 32.6918 38.3837 33.6043 39.1613C34.3861 39.8277 35.3682 40.2392 36.6931 40.2392C38.562 40.2392 39.7559 39.3051 39.7559 38.0144C39.7559 36.4677 38.5293 35.92 36.4722 35.0201L35.3445 34.5363C32.0896 33.1496 29.9274 31.4125 29.9274 27.7401C29.9274 24.3572 32.5049 21.782 36.5331 21.782C38.724 21.782 40.4444 22.3645 41.797 23.8047C42.5517 24.6084 42.2217 25.86 41.2939 26.4557C40.287 27.1022 39.0268 26.6007 37.9711 26.0373C37.555 25.8153 37.0861 25.7157 36.5331 25.7157C35.212 25.7157 34.3746 26.5539 34.3746 27.6487C34.3746 29.0019 35.2127 29.5496 37.1479 30.3878L38.2755 30.8708C42.1079 32.5142 44.2717 34.1896 44.2717 37.9565C44.2717 42.0175 41.0816 44.2422 36.7974 44.2422C33.5916 44.2422 31.2542 43.0731 29.7401 41.3516C28.9678 40.4735 29.368 39.1707 30.3791 38.5833ZM14.3509 39.077C15.4228 38.4281 16.6757 38.9509 17.6692 39.7144C18.0722 40.0242 18.5628 40.2111 19.2127 40.2111C20.6946 40.2111 21.6295 39.6312 21.6295 37.3768V24.2949C21.6295 23.0493 22.6392 22.0396 23.8847 22.0396C25.1303 22.0396 26.14 23.0493 26.14 24.2949V37.4377C26.14 42.1081 23.4017 44.2339 19.4047 44.2339C16.7516 44.2339 14.9189 43.2252 13.7113 41.7974C12.9767 40.9288 13.3778 39.6661 14.3509 39.077Z" fill="black"/>
</svg>
