<svg width="113" height="33" viewBox="0 0 113 33" fill="none" xmlns="http://www.w3.org/2000/svg">
<path d="M8.95812 1.84521V21.8055C8.98216 23.0538 8.86878 24.301 8.62003 25.5245C8.41445 26.4363 8.00549 27.2897 7.42371 28.0212C6.69833 28.9329 5.76688 29.6593 4.70599 30.1408C3.53448 30.6539 2.27782 30.9449 1 30.999L1 28.3983H1.33809C2.24397 28.3958 3.12626 28.1093 3.86076 27.5791C4.63574 27.0098 5.24232 26.2414 5.61623 25.3555C5.78939 24.8906 5.90299 24.4056 5.95432 23.9121C5.95432 23.379 6.03234 22.4947 6.03234 21.3114V1.84521H8.95812Z" fill="#5F594D" stroke="#5F594D" stroke-width="2"/>
<path d="M44.9907 1.46826L59.5936 22.911V1.84536H62.4283V30.7391H61.4531L46.7331 9.29635V30.1019H43.9114V1.46826H44.9907Z" fill="#5F594D" stroke="#5F594D" stroke-width="2"/>
<path d="M73.2083 1.84521L79.3459 13.8214L85.3925 1.84521H88.6044L80.6593 16.9032V30.0627H77.7205V16.9032L70.0745 1.84521H73.2083Z" fill="#5F594D" stroke="#5F594D" stroke-width="2"/>
<path d="M98.526 1.84521V21.3504C98.526 22.0266 98.526 22.6508 98.526 23.0799C98.526 23.509 98.526 23.9901 98.643 24.3802C98.6975 24.7159 98.7936 25.0435 98.9291 25.3555C99.0585 25.6462 99.2062 25.9285 99.3712 26.2007C99.8064 26.8989 100.428 27.4619 101.166 27.8261C101.932 28.2104 102.779 28.4065 103.636 28.3983C104.847 28.4504 106.039 28.0778 107.004 27.345C107.938 26.5488 108.572 25.4566 108.799 24.2502C109.046 23.0178 109.155 21.7617 109.124 20.5052V1.84521H111.998V20.8433C112.013 21.8819 111.956 22.9203 111.829 23.9511C111.725 24.7192 111.51 25.4682 111.191 26.1747C110.609 27.6194 109.591 28.8467 108.279 29.6856C106.908 30.5156 105.33 30.9395 103.727 30.908C102.011 30.9511 100.324 30.4555 98.9031 29.4906C97.559 28.5525 96.5877 27.1716 96.1593 25.5895C96.0064 25.028 95.9062 24.4533 95.8602 23.8731C95.8602 23.2099 95.7822 22.3517 95.7822 21.2724V1.84521H98.526Z" fill="#5F594D" stroke="#5F594D" stroke-width="2"/>
<path d="M33.1967 30.0627H36.2005L27.2671 1H25.7847L16.6042 30.0627H19.6601L26.4609 8.02187L33.1967 30.0627Z" fill="#5F594D" stroke="#5F594D" stroke-width="2"/>
</svg>
