<svg width="321" height="296" viewBox="0 0 321 296" fill="none" xmlns="http://www.w3.org/2000/svg">
<path d="M186.85 46.7884L73.0664 141.488L75.1842 184.336C75.1842 189.447 81.5485 261.909 87.6018 261.909L193.845 193.032L289.575 254.838C295.628 254.838 307.315 187.498 307.315 182.387L314.391 141.387L200.508 46.7884C196.512 44.1005 190.846 44.1005 186.85 46.7884Z" fill="#5F594D"/>
<path d="M285.249 80.7046H101.67C96.7778 80.7046 92.812 84.5464 92.812 89.2854V270.435C92.812 275.174 96.7778 279.016 101.67 279.016H285.249C290.141 279.016 294.107 275.174 294.107 270.435V89.2854C294.107 84.5464 290.141 80.7046 285.249 80.7046Z" fill="white"/>
<path d="M189.473 168.632H122.334C121.292 168.632 120.447 167.333 120.447 165.732C120.447 164.13 121.292 162.832 122.334 162.832H189.473C190.515 162.832 191.359 164.13 191.359 165.732C191.359 167.333 190.515 168.632 189.473 168.632Z" fill="#E5D9B6"/>
<path d="M210.816 144.113H123.415C121.776 144.113 120.447 145.4 120.447 146.987C120.447 148.575 121.776 149.862 123.415 149.862H210.816C212.455 149.862 213.784 148.575 213.784 146.987C213.784 145.4 212.455 144.113 210.816 144.113Z" fill="#E5D9B6"/>
<path d="M254.479 113.114H124.629C122.319 113.114 120.446 111.527 120.446 109.571C120.446 107.615 122.319 106.028 124.629 106.028H254.479C256.789 106.028 258.662 107.615 258.662 109.571C258.662 111.527 256.789 113.114 254.479 113.114Z" fill="#E5D9B6"/>
<path d="M189.473 131.191H122.334C121.292 131.191 120.447 129.892 120.447 128.291C120.447 126.689 121.292 125.391 122.334 125.391H189.473C190.515 125.391 191.359 126.689 191.359 128.291C191.359 129.892 190.515 131.191 189.473 131.191Z" fill="#E5D9B6"/>
<path d="M196.178 213.102L251.082 160.771C265.501 147.028 286.081 139.175 307.681 139.175C312.753 139.175 316.866 142.297 316.866 146.149V286.021C316.866 289.873 310.008 295.721 304.935 295.721H273.738L196.177 221.794C193.583 219.321 193.583 215.576 196.177 213.104L196.178 213.102Z" fill="#5F594D"/>
<path d="M191.513 213.006L136.61 160.675C122.191 146.932 101.61 139.079 80.01 139.079C74.9378 139.079 70.8252 142.202 70.8252 146.054V286.764C70.8252 290.616 76.7124 295.721 81.7859 295.721L113.953 295.625L191.515 221.698C194.108 219.225 194.108 215.481 191.515 213.009L191.513 213.006Z" fill="#5F594D"/>
<path d="M316.865 257.391V287.555C316.865 292.064 311.958 295.718 305.906 295.718H81.7846C75.7325 295.718 70.8252 292.064 70.8252 287.555V257.391L187.017 188.46C188.908 187.34 191.173 186.747 193.459 186.688C196.002 186.621 198.569 187.213 200.676 188.46L316.868 257.391H316.865Z" fill="#A19885"/>
<path d="M133.124 0L106.786 82.8614L102.567 96.1383L90.5359 86.3026L59.0889 60.6026L133.124 0Z" fill="#E5D9B6"/>
<path d="M133.122 0L41.6211 51.1938L0 37.8327L133.122 0Z" fill="#E5D9B6"/>
<path d="M133.122 0L59.09 60.6026L44.8601 88.1626L41.6211 51.1938L133.122 0Z" fill="#A19885"/>
<path d="M160.991 280.775C160.85 280.775 160.705 280.756 160.561 280.714C157.498 279.83 154.425 278.817 151.427 277.704C150.652 277.415 150.265 276.574 150.561 275.823C150.859 275.072 151.727 274.697 152.502 274.985C155.43 276.072 158.43 277.06 161.419 277.923C162.213 278.153 162.667 278.963 162.43 279.734C162.236 280.366 161.638 280.775 160.991 280.775ZM140.341 272.816C140.114 272.816 139.883 272.767 139.666 272.66C136.809 271.265 133.967 269.744 131.223 268.143C130.512 267.728 130.283 266.834 130.711 266.144C131.139 265.456 132.061 265.233 132.773 265.648C135.454 267.213 138.229 268.697 141.02 270.061C141.76 270.423 142.058 271.298 141.685 272.016C141.421 272.524 140.892 272.816 140.342 272.816H140.341ZM121.45 261.478C121.137 261.478 120.822 261.383 120.552 261.188C117.983 259.327 115.458 257.349 113.05 255.311C112.79 255.091 112.626 254.803 112.565 254.497C111.166 254.975 109.73 255.387 108.267 255.73C107.462 255.919 106.649 255.439 106.454 254.658C106.259 253.876 106.755 253.09 107.561 252.901C110.592 252.189 113.492 251.164 116.177 249.853C116.918 249.492 117.821 249.78 118.195 250.498C118.567 251.215 118.27 252.092 117.529 252.452C116.829 252.795 116.116 253.118 115.39 253.423C117.633 255.305 119.973 257.132 122.353 258.857C123.017 259.338 123.153 260.249 122.656 260.894C122.362 261.277 121.91 261.478 121.451 261.478H121.45ZM95.2977 256.919C95.2737 256.919 95.2496 256.919 95.2256 256.918C92.0486 256.772 88.7874 256.328 85.5293 255.601C84.7212 255.42 84.2164 254.639 84.4027 253.856C84.589 253.073 85.3956 252.583 86.2038 252.764C89.2861 253.452 92.37 253.872 95.3668 254.01C96.196 254.048 96.8359 254.73 96.7953 255.532C96.7578 256.312 96.0923 256.919 95.2962 256.919H95.2977ZM73.8487 251.677C73.6429 251.677 73.4356 251.636 73.2358 251.549C70.3832 250.311 67.4886 248.85 64.63 247.203C63.9165 246.792 63.6822 245.898 64.1073 245.207C64.5309 244.516 65.4532 244.289 66.1667 244.701C68.9262 246.29 71.7171 247.7 74.4645 248.891C75.2216 249.22 75.5611 250.08 75.2216 250.814C74.9723 251.354 74.424 251.675 73.8502 251.675L73.8487 251.677ZM104.907 247.105C104.501 247.105 104.096 246.946 103.8 246.633C101.557 244.265 99.5277 241.763 97.7672 239.196C97.3076 238.526 97.4953 237.623 98.1863 237.179C98.8773 236.733 99.8101 236.915 100.268 237.585C101.943 240.026 103.876 242.408 106.012 244.666C106.573 245.258 106.532 246.179 105.921 246.722C105.632 246.978 105.269 247.105 104.905 247.105H104.907ZM126.993 245.29C126.629 245.29 126.263 245.162 125.974 244.904C125.365 244.359 125.327 243.439 125.889 242.848C126.828 241.862 127.697 240.813 128.474 239.729C129.393 238.446 130.203 237.052 130.879 235.583C131.217 234.85 132.105 234.519 132.863 234.847C133.62 235.174 133.961 236.035 133.623 236.77C132.871 238.404 131.969 239.957 130.942 241.389C130.086 242.583 129.129 243.738 128.097 244.821C127.801 245.133 127.397 245.29 126.993 245.29ZM54.9247 240.433C54.6003 240.433 54.2728 240.331 53.9979 240.123C51.4818 238.209 49.0168 236.151 46.675 234.004C46.0726 233.453 46.0456 232.531 46.6149 231.946C47.1842 231.361 48.1351 231.336 48.7389 231.888C51.0147 233.974 53.4091 235.974 55.853 237.832C56.505 238.328 56.6191 239.244 56.1069 239.876C55.811 240.241 55.3694 240.433 54.9247 240.433ZM93.4456 228.815C92.8042 228.815 92.2093 228.414 92.011 227.788C91.1067 224.944 90.6486 222.173 90.6486 219.55C90.6486 219.086 90.6636 218.618 90.6921 218.163C90.7432 217.361 91.4537 216.751 92.2829 216.798C93.1106 216.847 93.7415 217.537 93.6919 218.339C93.6664 218.736 93.6544 219.144 93.6544 219.55C93.6544 221.882 94.0675 224.365 94.8846 226.931C95.1295 227.699 94.6848 228.514 93.8917 228.75C93.7445 228.794 93.5958 228.815 93.4486 228.815H93.4456ZM134.839 225.663C134.012 225.663 133.339 225.015 133.336 224.213C133.324 221.205 132.811 218.321 131.81 215.642C131.528 214.886 131.932 214.051 132.711 213.779C133.491 213.505 134.353 213.897 134.636 214.652C135.753 217.645 136.327 220.858 136.341 224.202C136.344 225.005 135.674 225.66 134.845 225.663H134.839ZM39.0156 225.42C38.5845 225.42 38.1563 225.241 37.8604 224.894C35.8115 222.506 33.8452 219.997 32.0171 217.435C31.5454 216.774 31.7152 215.867 32.3987 215.41C33.0806 214.953 34.0165 215.118 34.4881 215.78C36.2667 218.27 38.1789 220.711 40.1707 223.034C40.701 223.653 40.6138 224.57 39.9754 225.084C39.6945 225.309 39.3551 225.42 39.0156 225.42ZM96.8704 208.5C96.5114 208.5 96.1509 208.376 95.864 208.124C95.2481 207.586 95.2016 206.664 95.7574 206.069C97.979 203.689 100.938 201.841 104.318 200.723C105.104 200.464 105.957 200.87 106.224 201.63C106.492 202.39 106.073 203.218 105.288 203.477C102.391 204.435 99.8657 206.007 97.985 208.021C97.6891 208.338 97.2805 208.5 96.8704 208.5ZM26.6515 207.542C26.1137 207.542 25.5925 207.261 25.3236 206.768C23.8169 204.014 22.4229 201.166 21.1792 198.306C20.8577 197.565 21.2167 196.712 21.9813 196.399C22.7459 196.087 23.6262 196.435 23.9491 197.176C25.1568 199.958 26.5133 202.726 27.9779 205.404C28.3669 206.114 28.0875 206.995 27.3545 207.372C27.1307 207.487 26.8888 207.542 26.6515 207.542ZM125.959 206.692C125.641 206.692 125.318 206.595 125.046 206.391C122.79 204.713 120.017 203.496 117.031 202.87C116.219 202.7 115.704 201.925 115.88 201.141C116.056 200.355 116.853 199.854 117.666 200.026C121.085 200.741 124.269 202.144 126.876 204.082C127.534 204.571 127.658 205.486 127.152 206.123C126.856 206.497 126.41 206.692 125.959 206.692ZM18.3476 187.583C17.6927 187.583 17.0919 187.165 16.9041 186.525C16.0208 183.518 15.2758 180.448 14.6914 177.402C14.5397 176.612 15.0775 175.852 15.8931 175.705C16.7088 175.558 17.4929 176.079 17.6446 176.869C18.2125 179.827 18.935 182.808 19.7927 185.727C20.0195 186.5 19.5569 187.305 18.7592 187.526C18.621 187.564 18.4828 187.582 18.3476 187.582V187.583ZM14.6359 166.369C13.8457 166.369 13.1848 165.773 13.1382 164.998C13.0196 163.035 12.9595 161.038 12.9595 159.061C12.9595 157.923 12.979 156.768 13.0181 155.629C13.0451 154.826 13.7436 154.197 14.5698 154.223C15.3989 154.25 16.0494 154.924 16.0208 155.727C15.9833 156.835 15.9638 157.957 15.9638 159.063C15.9638 160.983 16.0223 162.923 16.1365 164.83C16.1846 165.632 15.5522 166.32 14.7245 166.368C14.6944 166.369 14.6644 166.371 14.6359 166.371V166.369ZM15.7039 144.875C15.6273 144.875 15.5507 144.869 15.4741 144.857C14.6539 144.735 14.0921 143.991 14.2183 143.198C14.7065 140.127 15.3419 137.037 16.108 134.014C16.3062 133.234 17.1189 132.757 17.9255 132.947C18.7307 133.139 19.2234 133.927 19.0251 134.708C18.28 137.648 17.6612 140.654 17.1865 143.641C17.0723 144.36 16.4324 144.875 15.7039 144.875ZM21.3174 124.053C21.1416 124.053 20.9644 124.022 20.7901 123.96C20.0135 123.677 19.62 122.839 19.9114 122.086C21.041 119.167 22.3178 116.269 23.7043 113.471C24.0633 112.747 24.9601 112.441 25.7081 112.79C26.4562 113.138 26.7701 114.008 26.4111 114.732C25.0622 117.451 23.8214 120.27 22.7234 123.108C22.4966 123.693 21.9242 124.053 21.3159 124.053H21.3174ZM31.2435 104.803C30.9656 104.803 30.6862 104.728 30.4354 104.573C29.7369 104.139 29.5326 103.239 29.9802 102.563C31.7212 99.9296 33.6034 97.3563 35.5742 94.9155C36.0849 94.2824 37.0297 94.1703 37.6832 94.6651C38.3366 95.16 38.4523 96.0755 37.9415 96.7086C36.0293 99.0782 34.2027 101.576 32.5113 104.133C32.2244 104.567 31.7392 104.804 31.245 104.804L31.2435 104.803Z" fill="#E5D9B6"/>
<path d="M299.817 75.4733C299.471 75.4733 299.125 75.345 298.862 75.0897C298.333 74.5791 298.333 73.749 298.862 73.2384L307.718 64.6588C308.247 64.1482 309.102 64.1482 309.629 64.6588C310.158 65.1694 310.158 65.9995 309.629 66.5101L300.773 75.0897C300.509 75.345 300.163 75.4733 299.817 75.4733Z" fill="#E5D9B6"/>
<path d="M299.818 75.8009C299.366 75.8009 298.942 75.6307 298.623 75.3217C298.304 75.0127 298.128 74.6016 298.128 74.1644C298.128 73.7271 298.304 73.316 298.623 73.007L307.48 64.4274C308.139 63.7898 309.211 63.7898 309.869 64.4274C310.188 64.7364 310.364 65.1475 310.364 65.5848C310.364 66.0221 310.188 66.4332 309.869 66.7422L301.013 75.3217C300.694 75.6307 300.269 75.8009 299.818 75.8009ZM308.674 64.6029C308.415 64.6029 308.155 64.6984 307.957 64.8896L299.1 73.4691C298.908 73.6551 298.803 73.9012 298.803 74.163C298.803 74.4249 298.908 74.6723 299.1 74.8569C299.292 75.0429 299.546 75.145 299.816 75.145C300.087 75.145 300.342 75.0429 300.533 74.8569L309.389 66.2774C309.581 66.0915 309.686 65.8453 309.686 65.5835C309.686 65.3216 309.581 65.0742 309.389 64.8896C309.197 64.705 308.932 64.6029 308.673 64.6029H308.674Z" fill="#E5D9B6"/>
<path d="M318.757 87.7523C318.691 87.7523 318.623 87.7471 318.554 87.7379L303.814 85.5933C303.077 85.486 302.568 84.8196 302.679 84.1047C302.79 83.3899 303.478 82.8976 304.216 83.0049L318.955 85.1495C319.693 85.2568 320.201 85.9233 320.091 86.6381C319.991 87.2875 319.414 87.7536 318.755 87.7536L318.757 87.7523Z" fill="#E5D9B6"/>
<path d="M318.756 88.079C318.672 88.079 318.587 88.0724 318.503 88.0606L303.764 85.9161C302.842 85.7825 302.206 84.9472 302.345 84.0543C302.483 83.1627 303.345 82.5448 304.267 82.6796L319.006 84.8242C319.928 84.9577 320.564 85.793 320.425 86.6859C320.302 87.4806 319.585 88.079 318.756 88.079ZM304.015 83.3159C303.522 83.3159 303.088 83.6655 303.014 84.1525C302.931 84.688 303.312 85.1895 303.865 85.2693L318.605 87.4139C318.655 87.4217 318.706 87.4243 318.757 87.4243C319.253 87.4243 319.685 87.0643 319.758 86.5877C319.84 86.0523 319.459 85.5508 318.906 85.4709L304.167 83.3264C304.115 83.3185 304.065 83.3159 304.015 83.3159Z" fill="#E5D9B6"/>
<path d="M289.355 71.4088C288.697 71.4088 288.121 70.9427 288.02 70.2933L285.806 56.0146C285.695 55.2997 286.204 54.6333 286.941 54.5259C287.678 54.4186 288.367 54.9109 288.478 55.6257L290.692 69.9044C290.803 70.6193 290.295 71.2857 289.557 71.3931C289.489 71.4035 289.421 71.4075 289.354 71.4075L289.355 71.4088Z" fill="#E5D9B6"/>
<path d="M289.356 71.7364C288.528 71.7364 287.81 71.1367 287.687 70.342L285.473 56.0633C285.406 55.6312 285.517 55.1992 285.786 54.8483C286.053 54.4974 286.447 54.267 286.894 54.2028C287.34 54.1374 287.785 54.2447 288.148 54.5053C288.512 54.7645 288.748 55.1468 288.816 55.5788L291.029 69.8576C291.097 70.2896 290.986 70.7217 290.717 71.0726C290.45 71.4248 290.056 71.6539 289.609 71.718C289.525 71.7298 289.44 71.7364 289.356 71.7364ZM287.145 54.8391C287.095 54.8391 287.044 54.843 286.993 54.8496C286.725 54.8889 286.488 55.0263 286.328 55.2371C286.167 55.4479 286.101 55.7071 286.141 55.9664L288.355 70.2451C288.429 70.7217 288.859 71.0817 289.355 71.0817C289.406 71.0817 289.456 71.0778 289.508 71.0713C289.775 71.032 290.012 70.8945 290.173 70.6837C290.333 70.4729 290.4 70.2137 290.359 69.9545L288.145 55.6757C288.105 55.4165 287.963 55.1874 287.745 55.0316C287.568 54.9059 287.36 54.8391 287.145 54.8391Z" fill="#E5D9B6"/>
</svg>
