<svg width="60" height="40" viewBox="0 0 60 40" fill="none" xmlns="http://www.w3.org/2000/svg">
<path d="M33.6 40H55.8C56.5084 40 57.1865 39.7511 57.7999 39.4C58.4135 39.0489 59.0459 38.6081 59.4 37.9999C59.7541 37.3918 60.0003 36.7018 60 35.9998C59.9997 35.2976 59.7546 34.6079 59.4 34.0001L44.4 8.20004C44.0459 7.59197 43.6133 7.15103 43 6.79994C42.3866 6.449 41.5083 6.19995 40.8 6.19995C40.0917 6.19995 39.4133 6.449 38.8 6.79994C38.1866 7.15103 37.754 7.59197 37.4 8.20004L33.6 14.8L26 1.99953C25.6456 1.3916 25.2136 0.75099 24.6 0.400047C23.9864 0.0489627 23.3084 0 22.6 0C21.8917 0 21.2135 0.0489627 20.6 0.400047C19.9865 0.75099 19.3544 1.3916 19 1.99953L0.400006 34.0001C0.0453975 34.6079 0.000312872 35.2976 1.55171e-06 35.9998C-0.000309769 36.7018 0.0459353 37.3917 0.400006 37.9999C0.754077 38.608 1.3865 39.0489 2 39.4C2.61351 39.7511 3.29155 40 4.00001 40H18C23.5473 40 27.585 37.5116 30.4 32.8L37.2 21L40.8 14.8L51.8 33.6H37.2L33.6 40ZM17.8 33.6H7.99995L22.6 8.39999L30 21L25.0983 29.5449C23.2289 32.6019 21.0975 33.6 17.8 33.6Z" fill="#00DC82"/>
</svg>
