<svg width="50" height="48" viewBox="0 0 50 48" fill="none" xmlns="http://www.w3.org/2000/svg">
<path d="M8.71795 0H40.5128C45.3333 0 49.2308 3.89744 49.2308 8.71795V39.2821C49.2308 44.1026 45.3333 48 40.5128 48H8.71795C3.89744 48 0 44.1026 0 39.2821V8.71795C0 3.89744 3.89744 0 8.71795 0Z" fill="#00005B"/>
<path d="M11.6924 33.641V12.5128C11.6924 12.3692 11.7539 12.2871 11.8975 12.2871C12.2462 12.2871 12.5744 12.2871 13.0462 12.2666C13.5385 12.2461 14.0514 12.2461 14.6052 12.2256C15.159 12.2051 15.7539 12.2051 16.3898 12.1846C17.0257 12.1641 17.6411 12.1641 18.2565 12.1641C19.9385 12.1641 21.3334 12.3692 22.4821 12.8C23.5078 13.1487 24.4514 13.723 25.2308 14.482C25.8873 15.1384 26.4001 15.9384 26.7283 16.8205C27.036 17.682 27.2001 18.5641 27.2001 19.4871C27.2001 21.2512 26.7898 22.7077 25.9693 23.8564C25.1488 25.0051 24.0001 25.8666 22.6667 26.3589C21.2719 26.8718 19.7334 27.0564 18.0514 27.0564C17.559 27.0564 17.2308 27.0564 17.0257 27.0359C16.8206 27.0153 16.5334 27.0153 16.1437 27.0153V33.6C16.1642 33.7435 16.0616 33.8666 15.918 33.8871H15.836H11.9385C11.7744 33.8871 11.6924 33.8051 11.6924 33.6205V33.641ZM16.1642 16.2666V23.1589C16.4514 23.1794 16.718 23.2 16.9642 23.2H18.0514C18.8514 23.2 19.6514 23.0769 20.4103 22.8307C21.0667 22.6461 21.6411 22.2564 22.0924 21.7436C22.5232 21.2307 22.7283 20.5333 22.7283 19.6307C22.7488 18.9948 22.5847 18.3589 22.2565 17.8051C21.9078 17.2718 21.4155 16.8615 20.8206 16.6359C20.0616 16.3282 19.2411 16.2051 18.4001 16.2256C17.8667 16.2256 17.3949 16.2256 17.0052 16.2461C16.5949 16.2256 16.3078 16.2461 16.1642 16.2666Z" fill="#9999FF"/>
<path d="M30.1539 17.4773H33.7436C33.9488 17.4773 34.1129 17.6209 34.1744 17.8055C34.2359 17.9696 34.277 18.1337 34.2975 18.3183C34.3385 18.5235 34.3795 18.7491 34.4 18.9542C34.4205 19.1799 34.4411 19.426 34.4411 19.6927C35.0564 18.9747 35.7949 18.3799 36.6359 17.9286C37.5795 17.3953 38.6667 17.1286 39.7539 17.1286C39.8975 17.1081 40.0205 17.2106 40.0411 17.3542V17.4363V21.4363C40.0411 21.6004 39.9385 21.6619 39.7129 21.6619C38.9744 21.6414 38.2154 21.7029 37.4975 21.8671C36.9026 21.9901 36.3282 22.1747 35.7744 22.4209C35.3847 22.6055 35.0154 22.8517 34.7282 23.1799V33.6414C34.7282 33.8465 34.6462 33.9286 34.4616 33.9286H30.4206C30.2564 33.9491 30.1129 33.8465 30.0923 33.6824V33.6004V22.2363C30.0923 21.744 30.0923 21.2312 30.0718 20.6978C30.0513 20.1645 30.0513 19.6312 30.0308 19.0978C30.0308 18.626 29.9898 18.1747 29.9488 17.7029C29.9282 17.6004 29.9898 17.4978 30.0923 17.4773C30.0923 17.4568 30.1334 17.4568 30.1539 17.4773Z" fill="#9999FF"/>
</svg>
