<svg width="50" height="48" viewBox="0 0 50 48" fill="none" xmlns="http://www.w3.org/2000/svg">
<path d="M8.71795 0H40.5128C45.3333 0 49.2308 3.89744 49.2308 8.71795V39.2821C49.2308 44.1026 45.3333 48 40.5128 48H8.71795C3.89744 48 0 44.1026 0 39.2821V8.71795C0 3.89744 3.89744 0 8.71795 0Z" fill="#001E36"/>
<path d="M11.0762 33.6634V12.5557C11.0762 12.4122 11.1377 12.3301 11.2813 12.3301C11.63 12.3301 11.9582 12.3301 12.43 12.3096C12.9223 12.2891 13.4351 12.2891 13.989 12.2686C14.5428 12.2481 15.1377 12.2481 15.7736 12.2275C16.4095 12.207 17.0249 12.207 17.6403 12.207C19.3223 12.207 20.7172 12.4122 21.8659 12.8429C22.8916 13.1916 23.8351 13.766 24.6146 14.525C25.271 15.1814 25.7839 15.9814 26.1121 16.8634C26.4198 17.725 26.5839 18.607 26.5839 19.5301C26.5839 21.2942 26.1736 22.7506 25.3531 23.8993C24.5326 25.0481 23.3839 25.9096 22.0505 26.4019C20.6557 26.9147 19.1172 27.0993 17.4351 27.0993C16.9428 27.0993 16.6146 27.0993 16.4095 27.0788C16.2044 27.0583 15.9172 27.0583 15.5275 27.0583V33.6429C15.548 33.7865 15.4454 33.9096 15.3018 33.9301C15.2813 33.9301 15.2608 33.9301 15.2198 33.9301H11.3223C11.1582 33.9301 11.0762 33.8481 11.0762 33.6634ZM15.548 16.2891V23.1814C15.8351 23.2019 16.1018 23.2224 16.348 23.2224H17.4351C18.2351 23.2224 19.0351 23.0993 19.7941 22.8532C20.4505 22.6686 21.0249 22.2788 21.4762 21.766C21.9069 21.2532 22.1121 20.5558 22.1121 19.6532C22.1326 19.0173 21.9685 18.3814 21.6403 17.8275C21.2916 17.2942 20.7992 16.884 20.2044 16.6583C19.4454 16.3506 18.6249 16.2275 17.7839 16.2481C17.2505 16.2481 16.7787 16.2481 16.389 16.2686C15.9787 16.2481 15.6916 16.2686 15.548 16.2891Z" fill="#31A8FF"/>
<path d="M39.3841 21.9308C38.7687 21.6026 38.1123 21.377 37.4149 21.2334C36.6559 21.0693 35.8969 20.9667 35.1174 20.9667C34.7072 20.9462 34.2764 21.0077 33.8867 21.1103C33.62 21.1718 33.3944 21.3154 33.2508 21.5206C33.1482 21.6847 33.0867 21.8898 33.0867 22.0744C33.0867 22.259 33.1687 22.4436 33.2918 22.6077C33.4764 22.8334 33.7226 23.018 33.9892 23.1616C34.461 23.4077 34.9533 23.6334 35.4456 23.8385C36.5533 24.2077 37.62 24.7206 38.6046 25.3359C39.2815 25.7667 39.8354 26.3411 40.2251 27.0385C40.5533 27.6949 40.7174 28.4129 40.6969 29.1513C40.7174 30.1154 40.4303 31.0795 39.8969 31.8795C39.3226 32.7 38.5226 33.3359 37.5995 33.7052C36.5944 34.1359 35.3636 34.3616 33.8867 34.3616C32.9431 34.3616 32.02 34.2795 31.0969 34.0949C30.379 33.9718 29.661 33.7462 29.0046 33.4385C28.861 33.3565 28.7585 33.2129 28.779 33.0488V29.4795C28.779 29.418 28.7995 29.3359 28.861 29.2949C28.9226 29.2539 28.9841 29.2744 29.0456 29.3154C29.8456 29.7872 30.6867 30.1154 31.5892 30.3206C32.3687 30.5257 33.1892 30.6283 34.0097 30.6283C34.7892 30.6283 35.3431 30.5257 35.7123 30.3411C36.0405 30.1975 36.2662 29.8488 36.2662 29.4795C36.2662 29.1924 36.1021 28.9257 35.7739 28.659C35.4456 28.3924 34.7687 28.0847 33.7636 27.6949C32.7174 27.3257 31.7533 26.8334 30.8508 26.218C30.2149 25.7667 29.6815 25.1718 29.2918 24.4744C28.9636 23.818 28.7995 23.1 28.82 22.3821C28.82 21.5 29.0662 20.659 29.5174 19.9C30.0303 19.0795 30.7892 18.4231 31.6713 18.0129C32.6354 17.5206 33.8456 17.2949 35.3021 17.2949C36.1431 17.2949 37.0046 17.3565 37.8456 17.4795C38.461 17.5616 39.0559 17.7257 39.6097 17.9513C39.6918 17.9718 39.7739 18.0539 39.8149 18.1359C39.8354 18.218 39.8559 18.3 39.8559 18.3821V21.7257C39.8559 21.8077 39.8149 21.8898 39.7533 21.9308C39.5687 21.9718 39.4662 21.9718 39.3841 21.9308Z" fill="#31A8FF"/>
</svg>
