<svg width="64" height="48" viewBox="0 0 64 48" fill="none" xmlns="http://www.w3.org/2000/svg">
<path d="M55.0785 27.5887C52.8414 27.6003 50.904 28.1373 49.2808 28.9392C48.6873 27.7531 48.0851 26.7096 47.9848 25.9339C47.867 25.0287 47.7302 24.4873 47.8728 23.4089C48.0153 22.3304 48.6393 20.8023 48.6306 20.6873C48.6219 20.5724 48.4909 20.0237 47.2008 20.0135C45.9106 20.0048 44.8067 20.2624 44.6772 20.6029C44.5477 20.9435 44.299 21.7104 44.1448 22.5109C43.9194 23.681 41.5689 27.8564 40.2351 30.0395C39.7987 29.1866 39.4278 28.4357 39.3508 27.8419C39.2329 26.9367 39.0962 26.3953 39.2388 25.3168C39.3813 24.2384 40.0053 22.7103 39.9966 22.5953C39.9878 22.4803 39.8569 21.9317 38.5668 21.9215C37.2766 21.9127 36.1726 22.1703 36.0432 22.5109C35.9137 22.8515 35.7741 23.6475 35.5108 24.4189C35.2461 25.1888 32.1232 32.1527 31.3044 33.9588C30.8869 34.8786 30.5247 35.6179 30.2687 36.1215C30.2673 36.12 30.2673 36.1185 30.2673 36.1185C30.2673 36.1185 30.2513 36.152 30.2251 36.2088C30.0055 36.6381 29.876 36.8753 29.876 36.8753C29.876 36.8753 29.8775 36.8782 29.8804 36.8841C29.7058 37.1999 29.5197 37.4924 29.428 37.4924C29.364 37.4924 29.2346 36.6527 29.4557 35.5C29.9211 33.0841 31.0367 29.3176 31.0265 29.1867C31.0207 29.1197 31.2345 28.4633 30.2978 28.1199C29.3873 27.7866 29.0629 28.3425 28.98 28.344C28.9 28.3455 28.8404 28.5405 28.8404 28.5405C28.8404 28.5405 29.8542 24.3039 26.9059 24.3039C25.0616 24.3039 22.5074 26.3225 21.2493 28.1519C20.4551 28.5856 18.7548 29.5141 16.9526 30.5052C16.2603 30.8865 15.5534 31.2751 14.8828 31.6448C14.8377 31.5938 14.7912 31.5443 14.7447 31.4934C11.168 27.676 4.55865 24.9763 4.83792 19.8432C4.93974 17.9774 5.58845 13.0641 17.5402 7.10587C27.3306 2.22458 35.169 3.56788 36.5232 6.5441C38.4577 10.7981 32.3342 18.7022 22.1671 19.8432C18.2937 20.2784 16.253 18.775 15.7454 18.2161C15.2116 17.6267 15.1316 17.6005 14.9323 17.7111C14.6079 17.8916 14.813 18.4111 14.9323 18.7211C15.2363 19.5114 16.4813 20.9129 18.6049 21.6115C20.474 22.2256 25.0223 22.5618 30.5218 20.4326C36.6832 18.0488 41.4933 11.4152 40.0795 5.87173C38.6424 0.233647 29.2986 -1.62049 20.4551 1.5231C15.1854 3.3947 9.48802 6.33162 5.39064 10.165C0.519454 14.7232 -0.257259 18.692 0.0627352 20.3497C1.20017 26.241 9.31493 30.0773 12.5643 32.9197C12.4043 33.0084 12.2531 33.0914 12.1163 33.1671C10.4873 33.9733 4.3012 37.213 2.7536 40.6345C0.997991 44.516 3.03286 47.3016 4.37975 47.677C8.55276 48.8384 12.8349 46.7485 15.1374 43.3139C17.4384 39.8807 17.1577 35.4083 16.1017 33.3679C16.0886 33.3432 16.0741 33.3184 16.061 33.2922C16.4813 33.0434 16.9104 32.7901 17.3352 32.5398C18.1642 32.0523 18.9788 31.5982 19.6842 31.214C19.2886 32.2968 18.9991 33.5964 18.8493 35.4724C18.6719 37.6758 19.5751 40.5239 20.7562 41.6446C21.2769 42.1379 21.9023 42.1496 22.298 42.1496C23.6725 42.1496 24.2994 41.0057 24.9903 39.6522C25.8368 37.9931 26.5888 36.0603 26.5888 36.0603C26.5888 36.0603 25.6463 41.2793 28.215 41.2793C29.1517 41.2793 30.0927 40.064 30.5131 39.4455C30.5145 39.4528 30.5145 39.4557 30.5145 39.4557C30.5145 39.4557 30.5393 39.4149 30.5873 39.3349C30.6847 39.1865 30.74 39.0919 30.74 39.0919C30.74 39.0919 30.7415 39.0817 30.7444 39.0642C31.1211 38.4107 31.956 36.9205 33.2069 34.4623C34.8243 31.2867 36.3748 27.3078 36.3748 27.3078C36.3748 27.3078 36.5188 28.28 36.9915 29.8896C37.2693 30.8356 37.8599 31.882 38.3268 32.8862C37.9515 33.4072 37.7217 33.7056 37.7217 33.7056C37.7217 33.7056 37.7231 33.7114 37.7275 33.7216C37.4279 34.1203 37.0919 34.5497 36.7399 34.9688C35.4628 36.4897 33.9428 38.2274 33.7392 38.728C33.4992 39.3189 33.5559 39.7526 34.0199 40.1033C34.3588 40.358 34.961 40.3988 35.5908 40.3566C36.7384 40.2794 37.5442 39.9942 37.9428 39.821C38.5639 39.6012 39.2868 39.2563 39.9646 38.7571C41.2169 37.8359 41.9718 36.5188 41.8991 34.7723C41.8583 33.8103 41.5529 32.8571 41.1645 31.9577C41.278 31.7947 41.3914 31.6288 41.5063 31.4628C43.4801 28.5754 45.0117 25.4027 45.0117 25.4027C45.0117 25.4027 45.1557 26.3749 45.6285 27.9845C45.867 28.7981 46.3397 29.6873 46.7644 30.5576C44.9085 32.0668 43.7579 33.8205 43.358 34.9703C42.6191 37.098 43.198 38.0615 44.283 38.2812C44.7747 38.3802 45.4699 38.1546 45.9921 37.9334C46.6423 37.718 47.4233 37.3585 48.1535 36.8215C49.4058 35.9002 50.6102 34.6108 50.5375 32.8658C50.504 32.0712 50.2887 31.2824 49.9964 30.5256C51.5702 29.8692 53.6065 29.5054 56.2014 29.8081C61.7678 30.4586 62.8587 33.9355 62.6507 35.3909C62.4412 36.8462 61.2747 37.6467 60.8835 37.8883C60.4936 38.1299 60.3744 38.2143 60.4064 38.3933C60.4544 38.6538 60.6347 38.6451 60.9678 38.5883C61.426 38.5112 63.8899 37.4051 63.9961 34.7185C64.1285 31.3042 60.8631 27.5581 55.0785 27.5887ZM12.1745 42.0608C10.3302 44.0736 7.75569 44.8333 6.65025 44.1929C5.45755 43.5016 5.93027 40.5385 8.19204 38.402C9.57093 37.1009 11.3513 35.9017 12.5323 35.1638C12.8014 35.0023 13.1956 34.7651 13.6756 34.4769C13.7556 34.4318 13.8007 34.407 13.8007 34.407L13.7992 34.4041C13.8923 34.3488 13.9868 34.2921 14.0843 34.2324C14.909 37.2727 14.1105 39.9491 12.1745 42.0608ZM25.607 32.9255C24.9656 34.4915 23.6216 38.4995 22.8027 38.2841C22.1002 38.0993 21.6725 35.0532 22.6631 32.0552C23.1605 30.546 24.2252 28.7428 24.8506 28.0427C25.8572 26.9163 26.9655 26.5481 27.2346 27.0051C27.5764 27.5872 26.0099 31.9431 25.607 32.9255ZM36.7035 38.223C36.4315 38.3656 36.1814 38.4544 36.0664 38.386C35.9806 38.3351 36.1784 38.1473 36.1784 38.1473C36.1784 38.1473 37.5661 36.6527 38.113 35.973C38.4315 35.5772 38.7995 35.1071 39.2009 34.5831C39.2038 34.6355 39.2053 34.6879 39.2053 34.7389C39.2024 36.529 37.4744 37.7369 36.7035 38.223ZM45.2517 36.2728C45.0481 36.1287 45.083 35.6616 45.7506 34.2047C46.0124 33.6328 46.6117 32.6708 47.6502 31.751C47.771 32.1294 47.8437 32.4918 47.8422 32.8294C47.8291 35.0823 46.2234 35.9235 45.2517 36.2728Z" fill="#F06292"/>
</svg>
