<svg width="54" height="48" viewBox="0 0 54 48" fill="none" xmlns="http://www.w3.org/2000/svg">
<path d="M12.0476 1.58036L26.9961 0L41.9446 1.58036L53.5176 17.1161L26.9961 48.0001L0.474609 17.1161L12.0476 1.58036Z" fill="#FDB300"/>
<path d="M11.2171 17.1152L26.9961 47.9992L0.474609 17.1152H11.2171Z" fill="#EA6C00"/>
<path d="M42.775 17.1152L26.9961 47.9992L53.5176 17.1152H42.775Z" fill="#EA6C00"/>
<path d="M11.2173 17.1152H42.7752L26.9963 47.9992L11.2173 17.1152Z" fill="#FDAD00"/>
<path d="M26.9963 0L12.0477 1.58034L11.2173 17.1161L26.9963 0Z" fill="#FDD231"/>
<path d="M26.9959 0L41.9445 1.58034L42.7749 17.1161L26.9959 0Z" fill="#FDD231"/>
<path d="M53.5176 17.1158L41.9445 1.58008L42.775 17.1158H53.5176Z" fill="#FDAD00"/>
<path d="M0.474609 17.1158L12.0476 1.58008L11.2171 17.1158H0.474609Z" fill="#FDAD00"/>
<path d="M26.9963 0L11.2173 17.1161H42.7752L26.9963 0Z" fill="#FEEEB7"/>
</svg>
