<svg width="60" height="60" viewBox="0 0 60 60" fill="none" xmlns="http://www.w3.org/2000/svg">
<path d="M29.9219 58.0184C33.8256 58.0184 36.9902 54.8538 36.9902 50.95C36.9902 47.0463 33.8256 43.8817 29.9219 43.8817C26.0181 43.8817 22.8535 47.0463 22.8535 50.95C22.8535 54.8538 26.0181 58.0184 29.9219 58.0184Z" fill="#ECE7DE"/>
<path d="M19.0793 30.518C21.5643 32.7453 23.0001 35.9113 23.0001 39.243V41.4519H36.8423V39.243C36.8423 35.9665 38.1676 32.7821 40.6342 30.6285C44.0395 27.6465 46.1931 23.2656 46.1931 18.3877C46.1931 9.05521 38.3333 1.56348 28.872 2.15251C20.9016 2.66791 14.3855 9.05521 13.7412 17.0071C13.2811 22.382 15.4347 27.2599 19.0793 30.518Z" fill="#B5AC9A"/>
<path d="M33.2346 18.1667C31.8909 18.1667 30.7128 18.7742 29.9029 19.713C29.093 18.7742 27.8965 18.1667 26.5712 18.1667C24.1414 18.1667 22.1719 20.1363 22.1719 22.5661C22.1719 24.9958 24.1414 26.9654 26.5712 26.9654C27.3995 26.9654 28.1726 26.7261 28.8537 26.3211V44.3786H31.0257V26.3396C31.67 26.7261 32.4431 26.947 33.253 26.947C35.6828 26.947 37.6523 24.9774 37.6523 22.5477C37.6339 20.1363 35.646 18.1667 33.2346 18.1667ZM26.5528 24.7933C25.3195 24.7933 24.3255 23.7994 24.3255 22.5661C24.3255 21.3328 25.3195 20.3388 26.5528 20.3388C27.7861 20.3388 28.7801 21.3328 28.7801 22.5661C28.7801 23.7809 27.7861 24.7933 26.5528 24.7933ZM33.2346 24.7933C32.0013 24.7933 31.0073 23.7994 31.0073 22.5661C31.0073 21.3328 32.0013 20.3388 33.2346 20.3388C34.4679 20.3388 35.4619 21.3328 35.4619 22.5661C35.4435 23.7809 34.4495 24.7933 33.2346 24.7933Z" fill="white"/>
<path d="M38.1673 41.4519H21.6928C21.5271 41.4519 21.3799 41.5992 21.3799 41.7648V52.4778C21.3799 52.7539 21.6008 52.9748 21.8769 52.9748H38.0016C38.2777 52.9748 38.4986 52.7539 38.4986 52.4778V41.7648C38.4802 41.5992 38.3329 41.4519 38.1673 41.4519Z" fill="#F6F3EC"/>
</svg>
