<svg width="43" height="48" viewBox="0 0 43 48" fill="none" xmlns="http://www.w3.org/2000/svg">
<path d="M21.2127 0L42.4255 11.9986V36.0014L21.2127 48L0 36.0014V11.9986L21.2127 0Z" fill="white"/>
<path d="M38.6378 35.1736L21.9143 44.6344V37.2675L32.3343 31.534L38.6378 35.1736ZM39.7834 34.1377V14.3556L33.6663 17.891V30.6077L39.7834 34.1377ZM3.72177 35.1736L20.4453 44.6344V37.2675L10.0198 31.534L3.72177 35.1736ZM2.57617 34.1377V14.3556L8.69333 17.891V30.6077L2.57617 34.1377ZM3.29423 13.0729L20.4453 3.37097V10.4912L9.45524 16.5371L9.36754 16.5865L3.29423 13.0729ZM39.0654 13.0729L21.9143 3.37097V10.4912L32.9044 16.5316L32.9921 16.581L39.0654 13.0729Z" fill="#8ED6FB"/>
<path d="M20.4456 35.5902L10.1626 29.9334V18.7351L20.4456 24.6714V35.5902ZM21.9146 35.5902L32.1975 29.9389V18.7351L21.9146 24.6714V35.5902ZM10.8587 17.4415L21.1801 11.7683L31.5014 17.4415L21.1801 23.3997L10.8587 17.4415Z" fill="#1C78C0"/>
</svg>
