<svg width="50" height="48" viewBox="0 0 50 48" fill="none" xmlns="http://www.w3.org/2000/svg">
<path d="M8.71795 0H40.5128C45.3333 0 49.2308 3.89744 49.2308 8.71795V39.2821C49.2308 44.1026 45.3333 48 40.5128 48H8.71795C3.89744 48 0 44.1026 0 39.2821V8.71795C0 3.89744 3.89744 0 8.71795 0Z" fill="#470137"/>
<path d="M25.8866 12.6153L19.7328 22.7692L26.2969 33.5384C26.3379 33.6204 26.3584 33.7025 26.3379 33.7845C26.3174 33.8666 26.2354 33.8051 26.1123 33.8256H21.4148C21.0866 33.8256 20.861 33.8051 20.7174 33.5999C20.2866 32.7384 19.8354 31.8974 19.4046 31.0358C18.9738 30.1948 18.502 29.3333 18.0097 28.4512C17.5174 27.5692 17.0251 26.6871 16.5328 25.7845H16.4918C16.061 26.6666 15.5892 27.5486 15.1174 28.4307C14.6456 29.3127 14.1738 30.1948 13.7225 31.0563C13.2507 31.9179 12.7789 32.7999 12.3072 33.641C12.2251 33.8461 12.061 33.8666 11.8354 33.8666H7.32254C7.24048 33.8666 7.17895 33.9076 7.17895 33.8051C7.15843 33.723 7.17895 33.6409 7.21997 33.5794L13.5995 23.1179L7.38407 12.5948C7.32254 12.5127 7.30202 12.4307 7.34305 12.3897C7.38407 12.3281 7.46613 12.3076 7.54818 12.3076H12.2046C12.3072 12.3076 12.4097 12.3281 12.4918 12.3486C12.5738 12.3897 12.6354 12.4512 12.6969 12.5333C13.0866 13.4153 13.5379 14.2974 14.0097 15.1794C14.502 16.0615 14.9738 16.923 15.4866 17.7845C15.9789 18.6461 16.4302 19.5076 16.861 20.3897H16.902C17.3328 19.4871 17.7841 18.6051 18.2354 17.7435C18.6866 16.882 19.1584 16.0204 19.6302 15.1589C20.102 14.2974 20.5533 13.4153 21.0046 12.5743C21.0251 12.4922 21.0661 12.4102 21.1277 12.3692C21.2097 12.3281 21.2918 12.3076 21.3943 12.3281H25.7225C25.8251 12.3076 25.9277 12.3692 25.9482 12.4717C25.9687 12.4922 25.9277 12.5743 25.8866 12.6153Z" fill="#FF61F6"/>
<path d="M35.3637 34.2561C33.8458 34.2766 32.3278 33.9689 30.9535 33.333C29.6612 32.7381 28.5945 31.7535 27.856 30.5432C27.0971 29.292 26.7278 27.733 26.7278 25.8663C26.7073 24.3484 27.0971 22.8509 27.856 21.5381C28.6355 20.2048 29.7637 19.0971 31.1176 18.3586C32.5535 17.5586 34.2765 17.1689 36.3073 17.1689C36.4099 17.1689 36.5535 17.1689 36.7381 17.1894C36.9227 17.2099 37.1278 17.2099 37.374 17.2304V10.7484C37.374 10.6048 37.4355 10.5227 37.5791 10.5227H41.7432C41.8458 10.5022 41.9278 10.5843 41.9483 10.6663C41.9483 10.6868 41.9483 10.7073 41.9483 10.7073V30.2355C41.9483 30.6048 41.9688 31.015 41.9894 31.4663C42.0304 31.8971 42.0509 32.3073 42.0714 32.6561C42.0714 32.7996 42.0099 32.9227 41.8663 32.9843C40.7996 33.4355 39.6714 33.7637 38.5227 33.9689C37.4765 34.1535 36.4304 34.2561 35.3637 34.2561ZM37.374 30.1535V21.1278C37.1894 21.0868 37.0047 21.0458 36.8201 21.0253C36.5945 21.0048 36.3688 20.9843 36.1432 20.9843C35.3432 20.9843 34.5432 21.1484 33.8253 21.5176C33.1278 21.8663 32.5329 22.3791 32.0817 23.0355C31.6304 23.692 31.4047 24.574 31.4047 25.6407C31.3842 26.3586 31.5073 27.0766 31.7535 27.7535C31.9586 28.3073 32.2663 28.7996 32.6765 29.2099C33.0663 29.5791 33.5381 29.8663 34.0714 30.0304C34.6253 30.215 35.1996 30.2971 35.774 30.2971C36.0817 30.2971 36.3688 30.2766 36.6355 30.2561C36.9022 30.2766 37.1278 30.2355 37.374 30.1535Z" fill="#FF61F6"/>
</svg>
